<svg height="20" viewBox="0 0 21 20" width="21" xmlns="http://www.w3.org/2000/svg"><g fill="#ffbf08" fill-rule="evenodd"><path d="m8.00668246 14.000026c-.53437248-.535047-1.02542016-1.0268489-1.50668483-1.5088088 3.43134417-3.44082369 6.87466757-6.89377594 10.34374617-10.37247645h-4.8327117v-2.11871472h8.4889655v8.45487662h-2.1174247v-4.75348837c-.0211633-.00924552-.0423266-.01849104-.0634898-.02783597-3.43953 3.4442038-6.8790599 6.88850699-10.31240064 10.32644769"/><path d="m9.39393253.00101625c0 .7167671-.00031246 1.40031004.00020831 2.08395712.00010415.18653442-.13894149.14227025-.24236645.14247855-1.05018516.00197887-2.10026617.00104151-3.15045133.00104151-1.07570291-.00010415-2.15150996-.00010415-3.25043922-.00010415v15.52599612h15.50884866v-6.625461h2.2276466c.0037495.0825918.0114569.1737239.0115611.2647518.0006249 2.0915602.0020831 4.1832245-.0001042 6.2747846-.0014581 1.3779176-.9462394 2.329441-2.3179481 2.3299618-5.1207332.0019788-10.24136235.0022913-15.36199147 0-1.37441668-.0006249-2.31721903-.9501695-2.31763565-2.329441-.00156231-5.1117305-.00187477-10.22346102.00020831-15.33529567.00052077-1.38041719.94301066-2.32912855 2.31617749-2.33162817 2.10037033-.00385359 4.2006365-.00104151 6.30100683-.00104151z"/></g></svg>