<svg height="36" viewBox="0 0 43 36" width="43" xmlns="http://www.w3.org/2000/svg"><path d="m43 4.26405086c-1.6094642.73204732-3.3195794 1.21282002-5.0718638 1.42587688 1.8540396-1.14377905 3.2338856-2.929348 3.8828308-5.02451853-1.7293855 1.05304963-3.6242238 1.79938081-5.6025621 2.20671422-1.6545955-1.82719541-3.9916205-2.86909825-6.4422746-2.87212343-2.7138185.05347445-5.2586537 1.34263501-6.925184 3.5081541-1.6665302 2.1655191-2.2765531 4.97583732-1.6600371 7.647635-7.128666-.3789825-13.75233165-3.83646052-18.18481484-9.49226607-2.3387037 4.14783184-1.15490722 9.41427827 2.72738635 12.13353327-1.40325728-.0470428-2.7744996-.4360483-3.99703172-1.1339116v.1154281c-.02608872 4.2899625 2.93023253 8.0094829 7.08045618 8.9083356-.75727251.2104455-1.53895149.3177684-2.32432432.3191248-.55706093.0012663-1.11287254-.0533201-1.65927199-.1629574 1.11669212 3.6745988 4.43383734 6.2151727 8.23590064 6.3078078-3.10498804 2.5243172-6.97181 3.8974007-10.95656929 3.8906069-.70262578.0002901-1.40467942-.0405174-2.10264021-.122218 4.01703496 2.6648435 8.71775904 4.0833703 13.5227308 4.0807238 16.2232464 0 25.0973286-13.8445855 25.0973286-25.8559008 0-.39381359-.0067177-.7876272-.0268708-1.18144082 1.7346166-1.28780237 3.2271011-2.87911014 4.4068114-4.69860382z" fill-rule="evenodd"/></svg>