<svg height="34" viewBox="0 0 57 34" width="57" xmlns="http://www.w3.org/2000/svg"><path d="m55.6953503 2.30690034c.3903515-1.32812191 0-2.30049688-1.8893012-2.30049688h-6.2378168c-1.1906701-.08245317-2.2930231.63812659-2.7090393 1.77082921 0 0-3.1696541 7.76318879-7.6665032 12.80688983-1.4521076 1.4546097-2.1157051 1.9210335-2.9042151 1.9210335-.3981585 0-.9680717-.4664238-.9680717-1.7866402v-12.41161546c0-1.589003-.4606148-2.30049688-1.7800028-2.30049688h-9.8056294c-.3986785-.02241191-.7897888.11666974-1.0870898.3865769-.2973009.26990716-.4763755.64847284-.4977372 1.05222183 0 1.50994813 2.2484246 1.85778958 2.4748284 6.10303641v9.225704c0 2.0238048-.3591233 2.3874572-1.1554404 2.3874572-2.107898 0-7.2527306-7.7948107-10.3052793-16.72010617-.5933342-1.73130178-1.1944755-2.43489017-2.78710957-2.43489017h-6.23781678c-1.78000278 0-2.13912615.84588717-2.13912615 1.77082921 0 1.66015239 2.11570506 9.88976493 9.84466452 20.76771583 5.15263968 7.4311583 12.41317728 11.4550515 19.01792448 11.4550515 3.9659711 0 4.457814-.8933201 4.457814-2.4348902v-5.6128961c0-1.7945457.3747374-2.1502927 1.6316692-2.1502927.9212295 0 2.5060566.4664238 6.2065887 4.0476097 4.2314101 4.2452468 4.9262357 6.1504693 7.2995728 6.1504693h6.2378168c1.7800027 0 2.6700041-.8933201 2.1625472-2.6562438-.5621061-1.7629238-2.5841268-4.3163962-5.2619381-7.344198-1.4521075-1.7233963-3.6302688-3.5811858-4.2938663-4.5061279-.9290366-1.1937286-.6635975-1.7233963 0-2.7906371 0 0 7.5962399-10.7435576 8.392557-14.39589286z" fill-rule="evenodd"/></svg>